<svg width="72" height="48" viewBox="0 0 72 48" fill="none" xmlns="http://www.w3.org/2000/svg">
<mask id="mask0_7_542" style="mask-type:luminance" maskUnits="userSpaceOnUse" x="0" y="1" width="71" height="46">
<path d="M33.757 12.4242H32.2806V12.3964C32.3299 12.3855 32.3745 12.3468 32.4142 12.2802C32.4524 12.2137 32.4842 12.1393 32.5065 12.0542C32.5288 11.9706 32.5399 11.9009 32.5399 11.8467V10.0846C32.5399 10.0413 32.5272 9.98399 32.5001 9.91431C32.4731 9.84463 32.4397 9.7827 32.3999 9.7316C32.3601 9.6805 32.3204 9.65418 32.2806 9.65418V9.62631L33.4659 9.49624H33.4945V11.8467C33.4945 11.904 33.5056 11.9737 33.5263 12.0557C33.547 12.1378 33.5772 12.2121 33.6186 12.2787C33.6584 12.3453 33.7061 12.384 33.7586 12.3948V12.4227L33.757 12.4242ZM17.6247 25.7249C17.0296 24.8237 16.4139 24.3731 15.7791 24.3731C14.6655 24.3731 14.1086 25.375 14.1086 27.3786V33.4281C14.1086 34.5244 14.3616 35.3915 14.8659 36.0279C15.3703 36.6642 16.1148 36.9832 17.0996 36.9832C17.876 36.9832 18.4949 36.6689 18.9547 36.0387C19.4145 35.4085 19.6436 34.5259 19.6436 33.3925C19.6436 31.9943 19.4559 30.5915 19.0804 29.1855C18.7049 27.7796 18.2197 26.6276 17.6231 25.7264L17.6247 25.7249ZM33.9781 11.9845C33.8731 11.8266 33.819 11.6439 33.819 11.4379C33.819 11.2103 33.8763 11.0199 33.9925 10.8681C34.1086 10.7148 34.2581 10.6018 34.4427 10.529C34.6273 10.4562 34.8261 10.4191 35.0377 10.4191C35.2859 10.4191 35.4943 10.4562 35.6661 10.5321C35.838 10.608 35.9652 10.6931 36.0527 10.7907C36.1387 10.8867 36.1816 10.9626 36.1816 11.0168L34.7211 11.52C34.8627 11.6067 35.0154 11.6764 35.1777 11.7275C35.34 11.7786 35.4927 11.8049 35.6343 11.8049C35.7839 11.8049 35.9207 11.7786 36.0432 11.7259C36.1657 11.6733 36.2421 11.6036 36.2723 11.5169H36.3264C36.3041 11.7089 36.2373 11.8777 36.1275 12.0248C36.0177 12.1703 35.873 12.2833 35.6932 12.3639C35.5134 12.4444 35.3114 12.4831 35.0854 12.4831C34.8357 12.4831 34.6145 12.4397 34.422 12.353C34.2295 12.2663 34.0816 12.144 33.975 11.9861L33.9781 11.9845ZM34.2279 10.9099C34.2279 11.0152 34.2772 11.1236 34.3743 11.2351H35.1173C35.2 11.2351 35.243 11.2119 35.243 11.1654C35.243 11.1143 35.2016 11.0524 35.1173 10.9811C35.0345 10.9099 34.9311 10.848 34.8086 10.7969C34.6861 10.7458 34.57 10.7195 34.4586 10.7195C34.3059 10.7195 34.2295 10.783 34.2295 10.9099H34.2279ZM37.5626 12.3561C37.4814 12.3561 37.3796 12.3282 37.2555 12.2725C37.1314 12.2168 37.0041 12.1285 36.8737 12.0093C36.7432 11.8885 36.6319 11.7368 36.5396 11.5525H36.4982L36.39 12.3112C36.4155 12.3298 36.4934 12.3546 36.6239 12.3824C36.7544 12.4103 36.9166 12.4351 37.1076 12.4537C37.3001 12.4722 37.4958 12.4815 37.6962 12.4815C38.0303 12.4815 38.2753 12.4304 38.4328 12.3267C38.5903 12.2245 38.6683 12.0898 38.6683 11.9241C38.6683 11.7476 38.5903 11.5974 38.436 11.4735C38.2817 11.3497 38.0685 11.2258 37.7949 11.1035C37.6008 11.0168 37.4417 10.944 37.3192 10.8867C37.1967 10.8279 37.1203 10.7876 37.0901 10.7628C37.0598 10.7381 37.0439 10.7117 37.0439 10.6823C37.0439 10.6126 37.1076 10.577 37.2364 10.577C37.3653 10.577 37.5069 10.6095 37.6612 10.6746C37.8171 10.7396 37.9651 10.831 38.1035 10.9471C38.2419 11.0632 38.3517 11.1948 38.4328 11.3404H38.4742L38.5792 10.6142C38.4981 10.5786 38.3437 10.5414 38.1162 10.5011C37.8887 10.4609 37.6596 10.4408 37.4321 10.4408C37.0932 10.4408 36.8355 10.495 36.6573 10.6018C36.4807 10.7086 36.3932 10.8557 36.3932 11.0431C36.3932 11.1731 36.4457 11.2924 36.5523 11.4008C36.6573 11.5091 36.8291 11.6315 37.0662 11.7708C37.2635 11.887 37.4035 11.9721 37.4878 12.0248C37.5705 12.0774 37.6262 12.1192 37.6533 12.1502C37.6803 12.1811 37.693 12.2152 37.693 12.2539C37.693 12.2864 37.6819 12.3128 37.6596 12.3313C37.6373 12.3499 37.6055 12.3592 37.5642 12.3592L37.5626 12.3561ZM60.8351 18.1548C61.0722 18.1548 61.1899 18.0898 61.1899 17.9597C61.1899 17.8142 61.0722 17.6392 60.8351 17.4364C60.5981 17.2335 60.3069 17.0586 59.9601 16.913C59.6133 16.7675 59.2824 16.6947 58.9658 16.6947C58.5314 16.6947 58.3151 16.8743 58.3151 17.2366C58.3151 17.5355 58.4535 17.8436 58.7287 18.1579H60.8351V18.1548ZM68.3922 24.0015C69.9386 25.2867 70.9187 27.2005 70.9187 29.3311C70.9187 31.4617 69.9386 33.3755 68.3922 34.6637C69.9386 35.9489 70.9187 37.8565 70.9187 39.9902C70.9187 43.8642 67.6954 46.9997 63.7196 46.9997C61.2011 46.9997 58.9849 45.7455 57.7025 43.8426C56.4139 45.7455 54.1977 46.9997 51.6855 46.9997C49.49 46.9997 47.5268 46.0459 46.2063 44.5409C44.8858 46.0459 42.9257 46.9997 40.7302 46.9997C38.5347 46.9997 36.5778 46.0459 35.2541 44.5409C33.9368 46.0459 31.9703 46.9997 29.7812 46.9997C27.592 46.9997 25.6256 46.0459 24.3051 44.5409C22.9814 46.0459 21.0182 46.9997 18.8258 46.9997C16.6335 46.9997 14.6734 46.0459 13.3529 44.5409C12.0292 46.0459 10.066 46.9997 7.87366 46.9997C3.89944 46.9997 0.674561 43.8642 0.674561 39.9902C0.674561 37.8565 1.65141 35.9489 3.19623 34.6637C1.653 33.3755 0.674561 31.4648 0.674561 29.3311C0.674561 27.1974 1.65141 25.2867 3.19623 24.0015C1.653 22.7164 0.674561 20.8088 0.674561 18.672C0.674561 16.5352 1.65141 14.6307 3.19623 13.3424C1.653 12.0573 0.674561 10.1466 0.674561 8.01599C0.674561 4.14192 3.89785 1.00024 7.87366 1.00024C10.066 1.00024 12.0292 1.95405 13.3529 3.46218C14.6734 1.95405 16.6335 1.00024 18.8258 1.00024C21.0182 1.00024 22.9814 1.95405 24.3051 3.46218C25.6256 1.95405 27.5888 1.00024 29.7812 1.00024C31.9735 1.00024 33.9368 1.95405 35.2541 3.46218C36.5778 1.95405 38.541 1.00024 40.7302 1.00024C42.9193 1.00024 44.8858 1.95405 46.2063 3.46218C47.5268 1.95405 49.49 1.00024 51.6855 1.00024C54.1977 1.00024 56.4139 2.26063 57.7025 4.16205C58.9865 2.25908 61.2011 1.00024 63.7196 1.00024C67.6938 1.00024 70.9187 4.14037 70.9187 8.01444C70.9187 10.145 69.9386 12.0557 68.3922 13.3409C69.9386 14.6291 70.9187 16.5399 70.9187 18.6704C70.9187 20.801 69.9386 22.7148 68.3922 24V24.0015ZM57.1553 18.7308C57.1553 19.3146 57.3048 19.8302 57.6055 20.2792C57.9046 20.7282 58.3278 21.0751 58.8719 21.3213C59.416 21.5675 60.0428 21.6898 60.7524 21.6898C61.392 21.6898 61.9647 21.5768 62.4738 21.3507C62.9829 21.1246 63.3934 20.8041 63.7037 20.3891C64.0155 19.9742 64.2032 19.4942 64.2653 18.9491H64.1109C64.0234 19.1953 63.8071 19.392 63.4602 19.5422C63.1134 19.6924 62.7268 19.7667 62.3004 19.7667C61.8979 19.7667 61.4668 19.6939 61.0054 19.5484C60.544 19.4028 60.1129 19.2062 59.7103 18.9615L63.8516 17.5339C63.8516 17.3806 63.7291 17.167 63.4841 16.8944C63.2391 16.6219 62.8748 16.3788 62.3895 16.1636C61.9043 15.9484 61.3108 15.8415 60.6092 15.8415C60.0094 15.8415 59.4478 15.9453 58.9228 16.1528C58.3978 16.3602 57.973 16.6808 57.6453 17.1143C57.3175 17.5479 57.1537 18.0867 57.1537 18.7324L57.1553 18.7308ZM51.4883 16.2441L52.0674 16.3246V19.8255C52.0674 20.4774 52.279 20.9528 52.7006 21.247C53.1222 21.5427 53.6726 21.6898 54.3504 21.6898C55.1713 21.6898 55.7838 21.4885 56.1895 21.0859C56.5952 20.6833 56.8577 20.2359 56.9771 19.745H56.7877C56.748 19.8751 56.6302 19.9928 56.433 20.0965C56.2357 20.2002 56.0193 20.2513 55.7823 20.2513C55.4832 20.2513 55.2397 20.1708 55.0552 20.0098C54.8706 19.8488 54.7768 19.6103 54.7768 19.296V17.1778L56.5046 17.7306L56.5873 16.0041H54.7768V13.759H54.659C54.4538 14.2266 54.1674 14.6245 53.8015 14.9512C53.434 15.2779 53.0458 15.5257 52.6369 15.6944C52.2265 15.8632 51.8446 15.967 51.4898 16.0057V16.2472L51.4883 16.2441ZM47.9388 14.5161C47.9388 14.9388 48.0486 15.2299 48.2697 15.391C48.4909 15.552 48.8616 15.6325 49.3818 15.6325C49.9021 15.6325 50.2855 15.552 50.505 15.391C50.7262 15.2299 50.836 14.9373 50.836 14.5161C50.836 14.0702 50.3507 13.8488 49.3802 13.8488C48.4097 13.8488 47.9372 14.0717 47.9372 14.5161H47.9388ZM47.3008 16.4516C47.4106 16.4516 47.5236 16.5244 47.6381 16.6699C47.7527 16.8155 47.8465 16.9889 47.9213 17.1886C47.9961 17.3884 48.0343 17.5494 48.0343 17.6717V19.8937C48.0343 20.047 48.0025 20.2436 47.9404 20.4805C47.8768 20.719 47.7909 20.9311 47.6795 21.12C47.5697 21.3073 47.4424 21.4173 47.3008 21.4482V21.5288H51.4898V21.4482C51.3403 21.4173 51.2082 21.3089 51.0937 21.12C50.9791 20.9326 50.8932 20.7205 50.8328 20.4867C50.7739 20.2529 50.7437 20.0547 50.7437 19.8937V16.001H50.661L47.3008 16.3695V16.4501V16.4516ZM42.3784 19.5948V16.0026L38.9228 16.2333V16.3138C39.0803 16.337 39.214 16.4361 39.3254 16.6126C39.4351 16.7891 39.521 16.9811 39.5799 17.1886C39.6388 17.3961 39.669 17.5463 39.669 17.6377V19.711C39.669 20.3938 39.8345 20.8955 40.1654 21.2129C40.4963 21.5319 40.9577 21.6913 41.5495 21.6913C42.0379 21.6913 42.4977 21.5458 42.9273 21.2531C43.3569 20.962 43.6671 20.6199 43.8564 20.2281V21.6449H43.9391L47.2993 21.2764V21.1959C47.1974 21.1959 47.0877 21.1324 46.9747 21.0054C46.8617 20.8784 46.7631 20.719 46.6851 20.527C46.6056 20.335 46.5674 20.1507 46.5674 19.9742V16.001L43.1134 16.2317V16.3122C43.2709 16.3355 43.4046 16.4346 43.5159 16.6111C43.6257 16.7876 43.7116 16.9796 43.7705 17.1871C43.8294 17.3946 43.8596 17.5448 43.8596 17.6361V19.9618C43.5128 20.1848 43.2041 20.2962 42.9368 20.2962C42.7555 20.2962 42.6171 20.2328 42.5232 20.1058C42.4293 19.9788 42.3816 19.8085 42.3816 19.5933L42.3784 19.5948ZM29.6873 11.3621C29.6873 12.9275 32.2854 14.1971 35.4911 14.1971C38.6969 14.1971 41.295 12.9275 41.295 11.3621C41.295 9.79663 38.6969 8.52695 35.4911 8.52695C32.2854 8.52695 29.6873 9.79663 29.6873 11.3621ZM33.3274 17.2103C33.3274 17.0648 33.372 16.9517 33.4643 16.8712C33.5549 16.7907 33.679 16.7504 33.8365 16.7504C34.1913 16.7504 34.6304 16.9006 35.1554 17.1995C35.6805 17.4983 36.1784 17.8544 36.6525 18.2648C37.1251 18.6751 37.4655 19.0266 37.6708 19.3177H37.7885L38.829 17.2227C38.7272 17.0771 38.541 16.8991 38.2721 16.687C38.0033 16.4748 37.6389 16.2813 37.1776 16.1048C36.7162 15.9282 36.1816 15.84 35.5739 15.84C34.9661 15.84 34.4395 15.9437 33.924 16.1512C33.407 16.3587 32.9854 16.6808 32.6576 17.119C32.3299 17.5571 32.166 18.0944 32.166 18.7308C32.166 19.3146 32.3029 19.8302 32.5749 20.2792C32.847 20.7282 33.2272 21.0751 33.7172 21.3213C34.2056 21.5675 34.7736 21.6898 35.4211 21.6898C36.013 21.6898 36.5459 21.5768 37.0185 21.3507C37.491 21.1246 37.876 20.8041 38.1719 20.3891C38.4678 19.9742 38.6476 19.4942 38.7097 18.9491H38.5553C38.4758 19.1799 38.2976 19.3734 38.0176 19.5313C37.7376 19.6893 37.3923 19.7667 36.9819 19.7667C36.4457 19.7667 35.8921 19.6196 35.3193 19.3239C34.7482 19.0281 34.2725 18.6766 33.8938 18.271C33.5152 17.8637 33.3258 17.5107 33.3258 17.2119L33.3274 17.2103ZM28.4416 14.5161C28.4416 14.9388 28.5514 15.2299 28.7725 15.391C28.9937 15.552 29.3644 15.6325 29.8846 15.6325C30.4048 15.6325 30.7883 15.552 31.0078 15.391C31.229 15.2299 31.3387 14.9373 31.3387 14.5161C31.3387 14.0702 30.8535 13.8488 29.883 13.8488C28.9125 13.8488 28.44 14.0717 28.44 14.5161H28.4416ZM27.802 16.4516C27.9118 16.4516 28.0248 16.5244 28.1393 16.6699C28.2539 16.8155 28.3477 16.9889 28.4225 17.1886C28.4973 17.3884 28.5355 17.5494 28.5355 17.6717V19.8937C28.5355 20.047 28.5036 20.2436 28.44 20.4805C28.3764 20.719 28.2905 20.9311 28.1791 21.12C28.0693 21.3073 27.942 21.4173 27.8004 21.4482V21.5288H31.9894V21.4482C31.8399 21.4173 31.7078 21.3089 31.5933 21.12C31.4787 20.9326 31.3928 20.7205 31.3324 20.4867C31.2735 20.2529 31.2433 20.0547 31.2433 19.8937V16.001H31.1605L27.8004 16.3695V16.4501L27.802 16.4516ZM19.4256 16.3122C19.5831 16.3355 19.7168 16.4346 19.8281 16.6111C19.9379 16.7876 20.0238 16.9796 20.0827 17.1871C20.1416 17.3946 20.1718 17.5448 20.1718 17.6361V19.7094C20.1718 20.3922 20.3372 20.8939 20.6682 21.2113C20.9991 21.5303 21.4605 21.6898 22.0523 21.6898C22.5407 21.6898 23.0005 21.5442 23.4301 21.2516C23.8596 20.9605 24.1699 20.6183 24.3592 20.2266V21.6433H24.4419L27.802 21.2748V21.1943C27.7002 21.1943 27.5904 21.1308 27.4759 21.0039C27.3613 20.8769 27.2643 20.7174 27.1863 20.5254C27.1068 20.3334 27.0686 20.1491 27.0686 19.9726V15.9995L23.613 16.2302V16.3107C23.7705 16.3339 23.9042 16.433 24.0155 16.6095C24.1253 16.7861 24.2112 16.9781 24.2701 17.1855C24.329 17.393 24.3592 17.5432 24.3592 17.6346V19.9602C24.0124 20.1832 23.7053 20.2947 23.4364 20.2947C23.2551 20.2947 23.1167 20.2312 23.0228 20.1042C22.9289 19.9773 22.8812 19.807 22.8812 19.5917V15.9995L19.4272 16.2302V16.3107L19.4256 16.3122ZM8.51641 19.1783C9.00642 19.9928 9.67622 20.6214 10.5274 21.0642C11.3785 21.5071 12.3331 21.7285 13.3911 21.7285C14.7721 21.7285 15.9064 21.4947 16.7974 21.0286C17.6883 20.5626 18.339 19.9633 18.7495 19.2356C19.1599 18.5063 19.3858 17.7228 19.4256 16.8851H19.249C19.1615 17.4751 18.7208 17.9241 17.9269 18.2291C17.1346 18.5342 16.1307 18.6859 14.9168 18.6859C13.87 18.6859 12.8581 18.5125 11.8845 18.1641C10.9108 17.8157 10.1233 17.359 9.5203 16.7922C8.91892 16.2255 8.61664 15.6418 8.61664 15.041C8.61664 14.479 8.80755 14.0361 9.18938 13.7125C9.57121 13.3889 10.144 13.2263 10.9076 13.2263C11.7588 13.2263 12.7181 13.3997 13.7857 13.7481C14.8532 14.0965 15.8189 14.544 16.686 15.0921C17.5531 15.6402 18.1322 16.1946 18.4265 16.7566H18.5888L18.8831 12.7695C18.6874 12.607 18.3056 12.4119 17.7376 12.1842C17.1696 11.9551 16.4967 11.7553 15.7187 11.5835C14.9407 11.4116 14.1452 11.3264 13.3322 11.3264C12.1868 11.3264 11.1956 11.5308 10.3587 11.9411C9.52189 12.3515 8.88233 12.9321 8.44322 13.6846C8.00253 14.4371 7.78297 15.3228 7.78297 16.3432C7.78297 17.4193 8.02798 18.3654 8.51641 19.1799V19.1783ZM24.4037 31.9912C24.4037 30.4413 24.0935 29.0477 23.4714 27.8137C22.8494 26.5781 21.9791 25.6119 20.8591 24.912C19.739 24.2121 18.4663 23.8622 17.0424 23.8622C16.0448 23.8622 14.9375 23.9133 13.7204 24.0139C12.7356 24.0898 12.0117 24.127 11.5456 24.127H7.91343V24.2586C8.17276 24.2957 8.42095 24.4475 8.66118 24.7122C8.90142 24.977 9.09552 25.3393 9.24347 25.7992C9.39143 26.2591 9.46621 26.7855 9.46621 27.377V34.1063C9.46621 34.7613 9.34371 35.424 9.09711 36.0913C8.85051 36.7587 8.44322 37.1381 7.87366 37.2263V37.3579H11.1558C12.2822 37.3579 13.5184 37.409 14.8659 37.5097C16.0321 37.5855 16.9501 37.6227 17.6247 37.6227C19.8265 37.6227 21.5066 37.1566 22.6648 36.2245C23.823 35.2924 24.4037 33.8802 24.4037 31.9897V31.9912ZM39.459 37.2279C39.031 37.0637 38.6619 36.8021 38.3517 36.4428C38.0415 36.0836 37.7105 35.4952 37.3605 34.6746L33.0681 24.1641L28.6007 23.9365L28.4655 24.031L29.1448 25.6753L25.7258 33.5396C25.1435 34.7876 24.6217 35.6981 24.1619 36.271C23.7021 36.8439 23.3171 37.1628 23.0069 37.2263L22.9878 37.3579H29.8257V37.2263C29.1257 37.1257 28.6373 36.9368 28.3589 36.6596C28.0804 36.3824 27.942 35.935 27.942 35.3171C27.942 34.8882 27.9866 34.4098 28.0773 33.8802L28.0964 33.8431L32.0594 32.8413L32.7786 34.5987C32.9981 35.2041 33.1095 35.6702 33.1095 35.9969C33.1095 36.3623 32.987 36.6395 32.7404 36.8284C32.4938 37.0173 32.0928 37.1504 31.536 37.2248V37.3564H39.4606V37.2248L39.459 37.2279ZM51.9099 24.2586L51.9289 24.127H44.6646V24.2586C45.2596 24.3468 45.7003 24.5961 45.9851 25.0049C46.2699 25.4152 46.4131 26.0036 46.4131 26.7731C46.4131 27.1897 46.3749 27.6619 46.2969 28.1915L45.5778 32.1042L43.2662 27.3399C42.8382 26.4697 42.625 25.8271 42.625 25.4121C42.625 25.0839 42.7443 24.8299 42.9846 24.6472C43.2248 24.4645 43.6035 24.336 44.1205 24.2601V24.1285H35.8062V24.2601C36.1943 24.4119 36.5603 24.6735 36.9039 25.0451C37.2476 25.4168 37.6453 25.9866 38.0987 26.7561L41.4016 32.8428V34.6761C41.4016 35.2691 41.2822 35.8204 41.042 36.3298C40.8018 36.8408 40.3913 37.1396 39.809 37.2279V37.3595H47.6365V37.2279C47.0542 37.1396 46.6422 36.8408 46.4035 36.3298C46.1633 35.8188 46.044 35.2676 46.044 34.6761V32.6539L49.1129 28.0227L50.0452 26.6431C50.6403 25.7605 51.0523 25.169 51.2782 24.8655C51.5042 24.5636 51.7158 24.3608 51.9099 24.2601V24.2586ZM64.5755 33.6542C64.5755 32.8722 64.3098 32.16 63.7784 31.5174C63.247 30.8748 62.6123 30.3236 61.874 29.8637C61.1358 29.4039 60.1908 28.8836 59.0374 28.3045C58.2212 27.888 57.5832 27.5458 57.1234 27.2748C56.6636 27.0039 56.2818 26.7174 55.9779 26.4139C55.6741 26.112 55.5213 25.8023 55.5213 25.488C55.5213 24.7819 56.0591 24.4289 57.133 24.4289C57.9221 24.4289 58.7446 24.672 59.6006 25.1566C60.4549 25.6413 61.2186 26.3102 61.8931 27.1602C62.5661 28.0103 63.0514 28.9595 63.3505 30.0046H63.6034L64.0887 24.9011C63.4539 24.6488 62.5184 24.4134 61.2822 24.192C60.046 23.9721 58.8639 23.8606 57.7375 23.8606C56.1705 23.8606 54.8468 24.1285 53.7649 24.6642C52.6831 25.2 52.1437 26.0655 52.1437 27.264C52.1437 27.9577 52.3665 28.594 52.8135 29.1731C53.2606 29.7522 53.8015 30.2663 54.4347 30.7138C55.0695 31.1613 55.892 31.6753 56.9023 32.2544C57.7439 32.7453 58.401 33.1525 58.8735 33.473C59.346 33.7951 59.7437 34.1435 60.0683 34.5228C60.3929 34.9022 60.5535 35.2986 60.5535 35.7135C60.5535 36.1285 60.4008 36.463 60.0969 36.6782C59.7931 36.8934 59.3619 37.0002 58.8051 37.0002C57.9889 37.0002 57.1409 36.689 56.2611 36.065C55.3797 35.441 54.5906 34.5971 53.8906 33.5319C53.1906 32.4666 52.6926 31.3177 52.3951 30.0821H52.1421L51.8319 36.3577C52.0005 36.5094 52.4333 36.6859 53.1333 36.8872C53.8333 37.0885 54.6352 37.2619 55.542 37.4075C56.4489 37.553 57.3032 37.6242 58.1067 37.6242C60.0619 37.6242 61.629 37.2898 62.8079 36.6224C63.9868 35.9551 64.5755 34.9657 64.5755 33.6542ZM28.3875 32.143H31.7667L29.4169 26.3582L28.3875 32.143Z" fill="white"/>
</mask>
<g mask="url(#mask0_7_542)">
<mask id="mask1_7_542" style="mask-type:luminance" maskUnits="userSpaceOnUse" x="-1" y="0" width="73" height="48">
<path d="M71.7141 0.226074H-0.120911V47.7724H71.7141V0.226074Z" fill="white"/>
</mask>
<g mask="url(#mask1_7_542)">
<mask id="mask2_7_542" style="mask-type:luminance" maskUnits="userSpaceOnUse" x="-1" y="0" width="73" height="48">
<path d="M71.7141 0.226074H-0.120911V47.7724H71.7141V0.226074Z" fill="white"/>
</mask>
<g mask="url(#mask2_7_542)">
<rect x="-0.181366" y="0.20752" width="71.9369" height="47.5665" fill="url(#paint0_linear_7_542)"/>
</g>
</g>
</g>
<defs>
<linearGradient id="paint0_linear_7_542" x1="-15.8001" y1="121.665" x2="82.5456" y2="119.833" gradientUnits="userSpaceOnUse">
<stop stop-color="#171121"/>
<stop offset="0.532377" stop-color="#120905"/>
<stop offset="1" stop-color="#080402"/>
</linearGradient>
</defs>
</svg>
