<svg width="221" height="149" viewBox="0 0 221 149" fill="none" xmlns="http://www.w3.org/2000/svg">
<mask id="mask0_227_2502" style="mask-type:luminance" maskUnits="userSpaceOnUse" x="0" y="0" width="221" height="149">
<path d="M104.09 37.12H99.45V37.03C99.605 36.995 99.745 36.87 99.87 36.655C99.99 36.44 100.09 36.2 100.16 35.925C100.23 35.655 100.265 35.43 100.265 35.255V29.565C100.265 29.425 100.225 29.24 100.14 29.015C100.055 28.79 99.95 28.59 99.825 28.425C99.7 28.26 99.575 28.175 99.45 28.175V28.085L103.175 27.665H103.265V35.255C103.265 35.44 103.3 35.665 103.365 35.93C103.43 36.195 103.525 36.435 103.655 36.65C103.78 36.865 103.93 36.99 104.095 37.025V37.115L104.09 37.12ZM53.39 80.07C51.52 77.16 49.585 75.705 47.59 75.705C44.09 75.705 42.34 78.94 42.34 85.41V104.945C42.34 108.485 43.135 111.285 44.72 113.34C46.305 115.395 48.645 116.425 51.74 116.425C54.18 116.425 56.125 115.41 57.57 113.375C59.015 111.34 59.735 108.49 59.735 104.83C59.735 100.315 59.145 95.785 57.965 91.245C56.785 86.705 55.26 82.985 53.385 80.075L53.39 80.07ZM104.785 35.7C104.455 35.19 104.285 34.6 104.285 33.935C104.285 33.2 104.465 32.585 104.83 32.095C105.195 31.6 105.665 31.235 106.245 31C106.825 30.765 107.45 30.645 108.115 30.645C108.895 30.645 109.55 30.765 110.09 31.01C110.63 31.255 111.03 31.53 111.305 31.845C111.575 32.155 111.71 32.4 111.71 32.575L107.12 34.2C107.565 34.48 108.045 34.705 108.555 34.87C109.065 35.035 109.545 35.12 109.99 35.12C110.46 35.12 110.89 35.035 111.275 34.865C111.66 34.695 111.9 34.47 111.995 34.19H112.165C112.095 34.81 111.885 35.355 111.54 35.83C111.195 36.3 110.74 36.665 110.175 36.925C109.61 37.185 108.975 37.31 108.265 37.31C107.48 37.31 106.785 37.17 106.18 36.89C105.575 36.61 105.11 36.215 104.775 35.705L104.785 35.7ZM105.57 32.23C105.57 32.57 105.725 32.92 106.03 33.28H108.365C108.625 33.28 108.76 33.205 108.76 33.055C108.76 32.89 108.63 32.69 108.365 32.46C108.105 32.23 107.78 32.03 107.395 31.865C107.01 31.7 106.645 31.615 106.295 31.615C105.815 31.615 105.575 31.82 105.575 32.23H105.57ZM116.05 36.9C115.795 36.9 115.475 36.81 115.085 36.63C114.695 36.45 114.295 36.165 113.885 35.78C113.475 35.39 113.125 34.9 112.835 34.305H112.705L112.365 36.755C112.445 36.815 112.69 36.895 113.1 36.985C113.51 37.075 114.02 37.155 114.62 37.215C115.225 37.275 115.84 37.305 116.47 37.305C117.52 37.305 118.29 37.14 118.785 36.805C119.28 36.475 119.525 36.04 119.525 35.505C119.525 34.935 119.28 34.45 118.795 34.05C118.31 33.65 117.64 33.25 116.78 32.855C116.17 32.575 115.67 32.34 115.285 32.155C114.9 31.965 114.66 31.835 114.565 31.755C114.47 31.675 114.42 31.59 114.42 31.495C114.42 31.27 114.62 31.155 115.025 31.155C115.43 31.155 115.875 31.26 116.36 31.47C116.85 31.68 117.315 31.975 117.75 32.35C118.185 32.725 118.53 33.15 118.785 33.62H118.915L119.245 31.275C118.99 31.16 118.505 31.04 117.79 30.91C117.075 30.78 116.355 30.715 115.64 30.715C114.575 30.715 113.765 30.89 113.205 31.235C112.65 31.58 112.375 32.055 112.375 32.66C112.375 33.08 112.54 33.465 112.875 33.815C113.205 34.165 113.745 34.56 114.49 35.01C115.11 35.385 115.55 35.66 115.815 35.83C116.075 36 116.25 36.135 116.335 36.235C116.42 36.335 116.46 36.445 116.46 36.57C116.46 36.675 116.425 36.76 116.355 36.82C116.285 36.88 116.185 36.91 116.055 36.91L116.05 36.9ZM189.19 55.625C189.935 55.625 190.305 55.415 190.305 54.995C190.305 54.525 189.935 53.96 189.19 53.305C188.445 52.65 187.53 52.085 186.44 51.615C185.35 51.145 184.31 50.91 183.315 50.91C181.95 50.91 181.27 51.49 181.27 52.66C181.27 53.625 181.705 54.62 182.57 55.635H189.19V55.625ZM212.94 74.505C217.8 78.655 220.88 84.835 220.88 91.715C220.88 98.595 217.8 104.775 212.94 108.935C217.8 113.085 220.88 119.245 220.88 126.135C220.88 138.645 210.75 148.77 198.255 148.77C190.34 148.77 183.375 144.72 179.345 138.575C175.295 144.72 168.33 148.77 160.435 148.77C153.535 148.77 147.365 145.69 143.215 140.83C139.065 145.69 132.905 148.77 126.005 148.77C119.105 148.77 112.955 145.69 108.795 140.83C104.655 145.69 98.475 148.77 91.595 148.77C84.715 148.77 78.535 145.69 74.385 140.83C70.225 145.69 64.055 148.77 57.165 148.77C50.275 148.77 44.115 145.69 39.965 140.83C35.805 145.69 29.635 148.77 22.745 148.77C10.255 148.77 0.119995 138.645 0.119995 126.135C0.119995 119.245 3.19 113.085 8.045 108.935C3.195 104.775 0.119995 98.605 0.119995 91.715C0.119995 84.825 3.19 78.655 8.045 74.505C3.195 70.355 0.119995 64.195 0.119995 57.295C0.119995 50.395 3.19 44.245 8.045 40.085C3.195 35.935 0.119995 29.765 0.119995 22.885C0.119995 10.375 10.25 0.22998 22.745 0.22998C29.635 0.22998 35.805 3.30998 39.965 8.17998C44.115 3.30998 50.275 0.22998 57.165 0.22998C64.055 0.22998 70.225 3.30998 74.385 8.17998C78.535 3.30998 84.705 0.22998 91.595 0.22998C98.485 0.22998 104.655 3.30998 108.795 8.17998C112.955 3.30998 119.125 0.22998 126.005 0.22998C132.885 0.22998 139.065 3.30998 143.215 8.17998C147.365 3.30998 153.535 0.22998 160.435 0.22998C168.33 0.22998 175.295 4.29998 179.345 10.44C183.38 4.29498 190.34 0.22998 198.255 0.22998C210.745 0.22998 220.88 10.37 220.88 22.88C220.88 29.76 217.8 35.93 212.94 40.08C217.8 44.24 220.88 50.41 220.88 57.29C220.88 64.17 217.8 70.35 212.94 74.5V74.505ZM177.625 57.485C177.625 59.37 178.095 61.035 179.04 62.485C179.98 63.935 181.31 65.055 183.02 65.85C184.73 66.645 186.7 67.04 188.93 67.04C190.94 67.04 192.74 66.675 194.34 65.945C195.94 65.215 197.23 64.18 198.205 62.84C199.185 61.5 199.775 59.95 199.97 58.19H199.485C199.21 58.985 198.53 59.62 197.44 60.105C196.35 60.59 195.135 60.83 193.795 60.83C192.53 60.83 191.175 60.595 189.725 60.125C188.275 59.655 186.92 59.02 185.655 58.23L198.67 53.62C198.67 53.125 198.285 52.435 197.515 51.555C196.745 50.675 195.6 49.89 194.075 49.195C192.55 48.5 190.685 48.155 188.48 48.155C186.595 48.155 184.83 48.49 183.18 49.16C181.53 49.83 180.195 50.865 179.165 52.265C178.135 53.665 177.62 55.405 177.62 57.49L177.625 57.485ZM159.815 49.455L161.635 49.715V61.02C161.635 63.125 162.3 64.66 163.625 65.61C164.95 66.565 166.68 67.04 168.81 67.04C171.39 67.04 173.315 66.39 174.59 65.09C175.865 63.79 176.69 62.345 177.065 60.76H176.47C176.345 61.18 175.975 61.56 175.355 61.895C174.735 62.23 174.055 62.395 173.31 62.395C172.37 62.395 171.605 62.135 171.025 61.615C170.445 61.095 170.15 60.325 170.15 59.31V52.47L175.58 54.255L175.84 48.68H170.15V41.43H169.78C169.135 42.94 168.235 44.225 167.085 45.28C165.93 46.335 164.71 47.135 163.425 47.68C162.135 48.225 160.935 48.56 159.82 48.685V49.465L159.815 49.455ZM148.66 43.875C148.66 45.24 149.005 46.18 149.7 46.7C150.395 47.22 151.56 47.48 153.195 47.48C154.83 47.48 156.035 47.22 156.725 46.7C157.42 46.18 157.765 45.235 157.765 43.875C157.765 42.435 156.24 41.72 153.19 41.72C150.14 41.72 148.655 42.44 148.655 43.875H148.66ZM146.655 50.125C147 50.125 147.355 50.36 147.715 50.83C148.075 51.3 148.37 51.86 148.605 52.505C148.84 53.15 148.96 53.67 148.96 54.065V61.24C148.96 61.735 148.86 62.37 148.665 63.135C148.465 63.905 148.195 64.59 147.845 65.2C147.5 65.805 147.1 66.16 146.655 66.26V66.52H159.82V66.26C159.35 66.16 158.935 65.81 158.575 65.2C158.215 64.595 157.945 63.91 157.755 63.155C157.57 62.4 157.475 61.76 157.475 61.24V48.67H157.215L146.655 49.86V50.12V50.125ZM131.185 60.275V48.675L120.325 49.42V49.68C120.82 49.755 121.24 50.075 121.59 50.645C121.935 51.215 122.205 51.835 122.39 52.505C122.575 53.175 122.67 53.66 122.67 53.955V60.65C122.67 62.855 123.19 64.475 124.23 65.5C125.27 66.53 126.72 67.045 128.58 67.045C130.115 67.045 131.56 66.575 132.91 65.63C134.26 64.69 135.235 63.585 135.83 62.32V66.895H136.09L146.65 65.705V65.445C146.33 65.445 145.985 65.24 145.63 64.83C145.275 64.42 144.965 63.905 144.72 63.285C144.47 62.665 144.35 62.07 144.35 61.5V48.67L133.495 49.415V49.675C133.99 49.75 134.41 50.07 134.76 50.64C135.105 51.21 135.375 51.83 135.56 52.5C135.745 53.17 135.84 53.655 135.84 53.95V61.46C134.75 62.18 133.78 62.54 132.94 62.54C132.37 62.54 131.935 62.335 131.64 61.925C131.345 61.515 131.195 60.965 131.195 60.27L131.185 60.275ZM91.3 33.69C91.3 38.745 99.465 42.845 109.54 42.845C119.615 42.845 127.78 38.745 127.78 33.69C127.78 28.635 119.615 24.535 109.54 24.535C99.465 24.535 91.3 28.635 91.3 33.69ZM102.74 52.575C102.74 52.105 102.88 51.74 103.17 51.48C103.455 51.22 103.845 51.09 104.34 51.09C105.455 51.09 106.835 51.575 108.485 52.54C110.135 53.505 111.7 54.655 113.19 55.98C114.675 57.305 115.745 58.44 116.39 59.38H116.76L120.03 52.615C119.71 52.145 119.125 51.57 118.28 50.885C117.435 50.2 116.29 49.575 114.84 49.005C113.39 48.435 111.71 48.15 109.8 48.15C107.89 48.15 106.235 48.485 104.615 49.155C102.99 49.825 101.665 50.865 100.635 52.28C99.605 53.695 99.09 55.43 99.09 57.485C99.09 59.37 99.52 61.035 100.375 62.485C101.23 63.935 102.425 65.055 103.965 65.85C105.5 66.645 107.285 67.04 109.32 67.04C111.18 67.04 112.855 66.675 114.34 65.945C115.825 65.215 117.035 64.18 117.965 62.84C118.895 61.5 119.46 59.95 119.655 58.19H119.17C118.92 58.935 118.36 59.56 117.48 60.07C116.6 60.58 115.515 60.83 114.225 60.83C112.54 60.83 110.8 60.355 109 59.4C107.205 58.445 105.71 57.31 104.52 56C103.33 54.685 102.735 53.545 102.735 52.58L102.74 52.575ZM87.385 43.875C87.385 45.24 87.73 46.18 88.425 46.7C89.12 47.22 90.285 47.48 91.92 47.48C93.555 47.48 94.76 47.22 95.45 46.7C96.145 46.18 96.49 45.235 96.49 43.875C96.49 42.435 94.965 41.72 91.915 41.72C88.865 41.72 87.38 42.44 87.38 43.875H87.385ZM85.375 50.125C85.72 50.125 86.075 50.36 86.435 50.83C86.795 51.3 87.09 51.86 87.325 52.505C87.56 53.15 87.68 53.67 87.68 54.065V61.24C87.68 61.735 87.58 62.37 87.38 63.135C87.18 63.905 86.91 64.59 86.56 65.2C86.215 65.805 85.815 66.16 85.37 66.26V66.52H98.535V66.26C98.065 66.16 97.65 65.81 97.29 65.2C96.93 64.595 96.66 63.91 96.47 63.155C96.285 62.4 96.19 61.76 96.19 61.24V48.67H95.93L85.37 49.86V50.12L85.375 50.125ZM59.05 49.675C59.545 49.75 59.965 50.07 60.315 50.64C60.66 51.21 60.93 51.83 61.115 52.5C61.3 53.17 61.395 53.655 61.395 53.95V60.645C61.395 62.85 61.915 64.47 62.955 65.495C63.995 66.525 65.445 67.04 67.305 67.04C68.84 67.04 70.285 66.57 71.635 65.625C72.985 64.685 73.96 63.58 74.555 62.315V66.89H74.815L85.375 65.7V65.44C85.055 65.44 84.71 65.235 84.35 64.825C83.99 64.415 83.685 63.9 83.44 63.28C83.19 62.66 83.07 62.065 83.07 61.495V48.665L72.21 49.41V49.67C72.705 49.745 73.125 50.065 73.475 50.635C73.82 51.205 74.09 51.825 74.275 52.495C74.46 53.165 74.555 53.65 74.555 53.945V61.455C73.465 62.175 72.5 62.535 71.655 62.535C71.085 62.535 70.65 62.33 70.355 61.92C70.06 61.51 69.91 60.96 69.91 60.265V48.665L59.055 49.41V49.67L59.05 49.675ZM24.765 58.93C26.305 61.56 28.41 63.59 31.085 65.02C33.76 66.45 36.76 67.165 40.085 67.165C44.425 67.165 47.99 66.41 50.79 64.905C53.59 63.4 55.635 61.465 56.925 59.115C58.215 56.76 58.925 54.23 59.05 51.525H58.495C58.22 53.43 56.835 54.88 54.34 55.865C51.85 56.85 48.695 57.34 44.88 57.34C41.59 57.34 38.41 56.78 35.35 55.655C32.29 54.53 29.815 53.055 27.92 51.225C26.03 49.395 25.08 47.51 25.08 45.57C25.08 43.755 25.68 42.325 26.88 41.28C28.08 40.235 29.88 39.71 32.28 39.71C34.955 39.71 37.97 40.27 41.325 41.395C44.68 42.52 47.715 43.965 50.44 45.735C53.165 47.505 54.985 49.295 55.91 51.11H56.42L57.345 38.235C56.73 37.71 55.53 37.08 53.745 36.345C51.96 35.605 49.845 34.96 47.4 34.405C44.955 33.85 42.455 33.575 39.9 33.575C36.3 33.575 33.185 34.235 30.555 35.56C27.925 36.885 25.915 38.76 24.535 41.19C23.15 43.62 22.46 46.48 22.46 49.775C22.46 53.25 23.23 56.305 24.765 58.935V58.93ZM74.695 100.305C74.695 95.3 73.72 90.8 71.765 86.815C69.81 82.825 67.075 79.705 63.555 77.445C60.035 75.185 56.035 74.055 51.56 74.055C48.425 74.055 44.945 74.22 41.12 74.545C38.025 74.79 35.75 74.91 34.285 74.91H22.87V75.335C23.685 75.455 24.465 75.945 25.22 76.8C25.975 77.655 26.585 78.825 27.05 80.31C27.515 81.795 27.75 83.495 27.75 85.405V107.135C27.75 109.25 27.365 111.39 26.59 113.545C25.815 115.7 24.535 116.925 22.745 117.21V117.635H33.06C36.6 117.635 40.485 117.8 44.72 118.125C48.385 118.37 51.27 118.49 53.39 118.49C60.31 118.49 65.59 116.985 69.23 113.975C72.87 110.965 74.695 106.405 74.695 100.3V100.305ZM122.01 117.215C120.665 116.685 119.505 115.84 118.53 114.68C117.555 113.52 116.515 111.62 115.415 108.97L101.925 75.03L87.885 74.295L87.46 74.6L89.595 79.91L78.85 105.305C77.02 109.335 75.38 112.275 73.935 114.125C72.49 115.975 71.28 117.005 70.305 117.21L70.245 117.635H91.735V117.21C89.535 116.885 88 116.275 87.125 115.38C86.25 114.485 85.815 113.04 85.815 111.045C85.815 109.66 85.955 108.115 86.24 106.405L86.3 106.285L98.755 103.05L101.015 108.725C101.705 110.68 102.055 112.185 102.055 113.24C102.055 114.42 101.67 115.315 100.895 115.925C100.12 116.535 98.86 116.965 97.11 117.205V117.63H122.015V117.205L122.01 117.215ZM161.14 75.335L161.2 74.91H138.37V75.335C140.24 75.62 141.625 76.425 142.52 77.745C143.415 79.07 143.865 80.97 143.865 83.455C143.865 84.8 143.745 86.325 143.5 88.035L141.24 100.67L133.975 85.285C132.63 82.475 131.96 80.4 131.96 79.06C131.96 78 132.335 77.18 133.09 76.59C133.845 76 135.035 75.585 136.66 75.34V74.915H110.53V75.34C111.75 75.83 112.9 76.675 113.98 77.875C115.06 79.075 116.31 80.915 117.735 83.4L128.115 103.055V108.975C128.115 110.89 127.74 112.67 126.985 114.315C126.23 115.965 124.94 116.93 123.11 117.215V117.64H147.71V117.215C145.88 116.93 144.585 115.965 143.835 114.315C143.08 112.665 142.705 110.885 142.705 108.975V102.445L152.35 87.49L155.28 83.035C157.15 80.185 158.445 78.275 159.155 77.295C159.865 76.32 160.53 75.665 161.14 75.34V75.335ZM200.945 105.675C200.945 103.15 200.11 100.85 198.44 98.775C196.77 96.7 194.775 94.92 192.455 93.435C190.135 91.95 187.165 90.27 183.54 88.4C180.975 87.055 178.97 85.95 177.525 85.075C176.08 84.2 174.88 83.275 173.925 82.295C172.97 81.32 172.49 80.32 172.49 79.305C172.49 77.025 174.18 75.885 177.555 75.885C180.035 75.885 182.62 76.67 185.31 78.235C187.995 79.8 190.395 81.96 192.515 84.705C194.63 87.45 196.155 90.515 197.095 93.89H197.89L199.415 77.41C197.42 76.595 194.48 75.835 190.595 75.12C186.71 74.41 182.995 74.05 179.455 74.05C174.53 74.05 170.37 74.915 166.97 76.645C163.57 78.375 161.875 81.17 161.875 85.04C161.875 87.28 162.575 89.335 163.98 91.205C165.385 93.075 167.085 94.735 169.075 96.18C171.07 97.625 173.655 99.285 176.83 101.155C179.475 102.74 181.54 104.055 183.025 105.09C184.51 106.13 185.76 107.255 186.78 108.48C187.8 109.705 188.305 110.985 188.305 112.325C188.305 113.665 187.825 114.745 186.87 115.44C185.915 116.135 184.56 116.48 182.81 116.48C180.245 116.48 177.58 115.475 174.815 113.46C172.045 111.445 169.565 108.72 167.365 105.28C165.165 101.84 163.6 98.13 162.665 94.14H161.87L160.895 114.405C161.425 114.895 162.785 115.465 164.985 116.115C167.185 116.765 169.705 117.325 172.555 117.795C175.405 118.265 178.09 118.495 180.615 118.495C186.76 118.495 191.685 117.415 195.39 115.26C199.095 113.105 200.945 109.91 200.945 105.675ZM87.215 100.795H97.835L90.45 82.115L87.215 100.795Z" fill="white"/>
</mask>
<g mask="url(#mask0_227_2502)">
<mask id="mask1_227_2502" style="mask-type:luminance" maskUnits="userSpaceOnUse" x="-3" y="-3" width="227" height="155">
<path d="M223.38 -2.27002H-2.38V151.265H223.38V-2.27002Z" fill="white"/>
</mask>
<g mask="url(#mask1_227_2502)">
<mask id="mask2_227_2502" style="mask-type:luminance" maskUnits="userSpaceOnUse" x="-3" y="-3" width="227" height="155">
<path d="M223.38 -2.27002H-2.38V151.265H223.38V-2.27002Z" fill="white"/>
</mask>
<g mask="url(#mask2_227_2502)">
<rect x="-2.57001" y="-2.33002" width="226.08" height="153.6" fill="#120905"/>
</g>
</g>
</g>
</svg>
