<svg width="690" height="848" viewBox="0 0 690 848" fill="none" xmlns="http://www.w3.org/2000/svg">
<path d="M16.4103 790.133C42.512 804.411 69.1454 816.785 96.5474 825.984C123.683 835.096 151.232 840.918 179.046 844.732C207.206 848.596 235.522 850.175 263.353 842.957C291.755 835.593 317.439 814.271 333.078 782.645C349.202 750.051 348.616 707.029 338.606 671.328C330.016 640.682 316.444 613.262 300.724 587.955C285.741 563.834 269.595 541.392 251.17 521.607C232.878 501.958 213.203 484.157 192.341 469.446C171.484 454.736 149.284 442.73 126.655 433.615C116.534 429.536 106.253 426.123 95.8706 423.42C83.7018 420.251 71.0098 417.098 58.5978 417.807C42.3242 418.738 25.8121 425.219 14.4213 440.926C1.14415 459.228 -3.58945 487.536 3.6189 511.389C9.40575 530.535 18.9959 547.167 31.0927 560.498C41.5577 572.036 52.7006 582.636 63.783 593.127C100.42 627.819 140.21 656.812 181.943 679.619C225.995 703.695 271.546 722.17 318.556 732.938C365.462 743.686 413.348 748.188 460.808 744.756C484.998 743.01 509.514 739.776 533.196 733.309C557.051 726.798 580.609 713.976 598.019 691.439C618.338 665.135 626.639 625.875 622.591 589.169C620.606 571.161 617.545 553.942 612.369 536.984C607.608 521.392 602.042 506.079 595.898 491.307C585.053 465.245 571.737 441.46 557.177 418.671C544.173 398.322 529.651 379.608 513.939 362.783C478.522 324.871 438.685 295.979 395.199 277.174C375.933 268.845 356.058 262.945 335.941 259.761C323.575 257.803 311.125 255.917 298.664 255.826C291.418 255.773 284.403 257.102 277.266 258.609C272.745 259.565 268.376 260.989 264.157 263.31C255.396 268.132 248.069 273.062 241.333 282.154C235.04 290.651 230.634 301.301 228.261 312.668C225.705 324.893 226.187 338.986 229.102 351.098C231.353 360.461 234.978 369.603 239.699 377.317C244.648 385.403 249.571 392.897 255.657 399.524C261.742 406.151 268.51 412.253 275.068 418.365C284.964 427.587 294.881 436.767 304.907 445.748C346.339 482.851 390.348 516.357 438.977 534.406C482.086 550.409 529.219 551.548 571.936 534.208C615.145 516.666 654.778 478.95 673.867 424.606C684.8 393.482 689.994 359.967 689.451 325.578C688.95 293.8 683.843 261.332 674.986 231.58C665.907 201.091 653.623 172.627 638.384 146.554C622.531 119.433 604.813 94.43 585.703 71.1235C568.989 50.7383 551.458 31.526 533.915 12.3662C527.467 5.32288 520.051 0.733126 511.467 0.917975C503.769 1.08375 494.673 5.71555 489.534 13.3219C484.213 21.1993 480.357 31.4721 480.962 42.3107C481.567 53.1493 484.39 63.9285 490.774 70.9035C523.569 106.729 556.542 142.952 583.69 186.267C581.994 183.558 580.302 180.842 578.606 178.132C592.387 200.264 604.611 224.114 613.712 250.016C612.587 246.795 611.466 243.579 610.34 240.358C617.65 261.416 622.937 283.545 625.812 306.296C625.359 302.694 624.91 299.098 624.456 295.497C626.738 314.172 627.355 333.087 625.898 351.86C626.196 348.242 626.49 344.631 626.788 341.013C625.499 356.618 622.776 371.895 618.419 386.504C619.405 383.237 620.386 379.976 621.372 376.709C617.531 389.298 612.537 401.163 606.395 412.089L611.125 403.743C604.85 414.747 597.522 424.589 589.344 433.225C591.414 431.055 593.489 428.891 595.558 426.722C585.798 436.895 575.018 445.209 563.57 451.825C566.041 450.402 568.507 448.984 570.978 447.561C556.633 455.737 541.459 461.173 525.942 464.23C528.714 463.683 531.481 463.141 534.253 462.594C516.502 465.99 498.452 466.28 480.579 463.593C483.371 464.021 486.159 464.443 488.952 464.87C467.31 461.493 446.194 453.511 425.934 443.026C428.464 444.342 430.989 445.652 433.519 446.968C395.424 427.066 360.646 398.088 327.097 367.573C317.498 358.838 307.912 350.057 298.459 341.052C300.62 343.131 302.786 345.203 304.948 347.282C298.86 341.403 293.088 334.973 288.208 327.402C289.904 330.112 291.596 332.828 293.292 335.537C290.919 331.733 288.837 327.731 287.207 323.319C288.332 326.54 289.453 329.756 290.579 332.977C289.491 329.825 288.692 326.614 288.247 323.215C288.701 326.817 289.15 330.413 289.603 334.014C289.331 331.367 289.299 328.813 289.506 326.161C289.208 329.779 288.914 333.39 288.616 337.008C288.871 334.709 289.289 332.523 289.887 330.339C288.901 333.606 287.919 336.866 286.934 340.133C287.678 337.696 288.61 335.458 289.781 333.325C288.203 336.106 286.629 338.892 285.051 341.672C286.243 339.649 287.578 337.861 289.082 336.22C287.012 338.39 284.938 340.554 282.868 342.723C285.044 340.488 287.395 338.701 289.923 337.212L282.514 341.477C286.706 339.134 291.11 337.698 295.624 336.776C292.852 337.323 290.084 337.865 287.313 338.412C300.67 335.895 314.591 337.703 327.961 339.714C325.168 339.287 322.38 338.865 319.587 338.437C346.455 342.585 372.808 351.493 397.997 364.531C395.467 363.215 392.942 361.905 390.412 360.589C416.459 374.19 441.095 392.117 463.705 413.792C461.543 411.713 459.377 409.641 457.216 407.562C479.042 428.598 498.851 453.027 516.029 480.382C514.333 477.672 512.641 474.956 510.945 472.246C527.093 498.119 540.783 526.448 551.432 556.701C550.307 553.48 549.186 550.264 548.06 547.043C553.769 563.409 558.444 580.378 560.79 598.083C560.337 594.481 559.888 590.885 559.434 587.284C560.71 597.475 561.168 607.736 560.364 617.996C560.662 614.378 560.956 610.766 561.254 607.148C560.624 614.245 559.394 621.134 557.438 627.801C558.424 624.534 559.406 621.273 560.391 618.007C558.538 624.015 556.153 629.617 553.213 634.831C554.791 632.05 556.365 629.264 557.943 626.484C554.861 631.782 551.311 636.474 547.347 640.664C549.417 638.495 551.491 636.331 553.561 634.161C548.155 639.729 542.201 644.201 535.912 647.895C538.383 646.472 540.849 645.054 543.32 643.631C529.962 651.304 515.597 655.451 501.173 658.316C503.945 657.769 506.712 657.227 509.484 656.68C470.856 664.206 431.495 666.157 392.42 663.103C381.236 662.229 370.074 660.925 358.94 659.231C361.732 659.659 364.521 660.081 367.313 660.508C326.751 654.258 286.66 642.649 247.826 625.852C236.687 621.035 225.659 615.78 214.748 610.134C217.278 611.449 219.803 612.759 222.333 614.075C185.897 595.131 150.847 571.622 117.958 543.688C108.686 535.812 99.5903 527.577 90.6798 519.025C92.8413 521.103 95.0071 523.176 97.1686 525.255C85.2276 513.754 72.4797 502.19 62.9563 487.201C64.6525 489.91 66.3443 492.626 68.0406 495.336C65.1888 490.712 62.694 485.83 60.8056 480.431C61.9311 483.652 63.052 486.868 64.1775 490.089C63.2334 487.189 62.5036 484.261 62.0434 481.176C62.4968 484.778 62.9457 488.374 63.3992 491.975C63.0784 489.341 62.9788 486.794 63.1319 484.137C62.8339 487.755 62.5403 491.367 62.2423 494.985C62.4525 492.692 62.8354 490.524 63.4239 488.346C62.4382 491.613 61.4568 494.874 60.471 498.141C61.2112 495.733 62.122 493.553 63.2849 491.449C61.7069 494.23 60.1335 497.016 58.5555 499.796C59.6528 497.967 60.8493 496.379 62.2271 494.904C60.1572 497.073 58.0826 499.237 56.0126 501.407C57.6204 499.805 59.3286 498.496 61.1663 497.388C58.6954 498.812 56.2289 500.229 53.758 501.653C56.6806 500.011 59.7192 498.97 62.8687 498.304C60.097 498.851 57.3296 499.393 54.5579 499.94C60.6506 498.793 66.8044 499.026 72.9194 499.957C70.1268 499.529 67.3387 499.108 64.546 498.68C88.7247 502.63 112.7 511.682 135.35 523.387C132.82 522.071 130.295 520.761 127.765 519.446C153.662 532.945 178.156 550.73 200.637 572.268C198.476 570.189 196.31 568.117 194.149 566.038C215.81 586.915 235.454 611.168 252.476 638.34C250.78 635.63 249.088 632.915 247.392 630.205C259.268 649.283 270.267 669.629 278.136 691.964C277.011 688.743 275.89 685.527 274.764 682.306C278.721 693.757 281.805 705.64 283.391 718.013C282.938 714.412 282.489 710.816 282.036 707.214C282.998 715.316 283.276 723.439 282.654 731.587C282.952 727.969 283.246 724.357 283.544 720.739C282.971 727.161 281.851 733.363 280.12 739.41C281.106 736.143 282.087 732.882 283.073 729.615C281.235 735.693 278.846 741.336 275.894 746.613C277.472 743.833 279.046 741.047 280.623 738.267C277.297 744.028 273.442 749.122 269.146 753.668C271.215 751.498 273.29 749.334 275.36 747.165C269.993 752.697 264.125 757.219 257.867 760.872C260.338 759.449 262.804 758.031 265.275 756.608C256.818 761.4 247.887 764.373 238.752 766.173C241.523 765.625 244.291 765.084 247.062 764.536C222.262 769.135 196.423 766.207 171.586 762.463C174.379 762.891 177.167 763.313 179.96 763.74C134.94 756.819 90.6956 742.107 48.4821 720.268C51.012 721.584 53.5372 722.894 56.0671 724.209C52.8809 722.548 49.703 720.857 46.5375 719.119C42.8727 716.22 38.9466 714.696 34.7679 714.536C30.573 713.413 26.4049 713.747 22.2726 715.531C15.0511 718.288 7.31798 725.759 3.92037 734.645C0.277075 744.176 -1.4042 755.668 1.4336 766.087C3.9896 775.473 8.98813 786.066 16.3785 790.11L16.4103 790.133Z" fill="#003F4B"/>
</svg>
